<mxfile host="Electron" modified="2023-07-31T03:12:27.874Z" agent="Mozilla/5.0 (X11; Linux x86_64) AppleWebKit/537.36 (KHTML, like Gecko) draw.io/21.2.8 Chrome/112.0.5615.165 Electron/24.2.0 Safari/537.36" etag="-QFoWU5u3ZpgfbUg7Bq5" version="21.2.8" type="device" pages="2">
  <diagram name="Page-1" id="AOB0-Nac2v83mfSuVHvI">
    <mxGraphModel dx="1936" dy="1079" grid="0" gridSize="10" guides="1" tooltips="1" connect="1" arrows="1" fold="1" page="0" pageScale="1" pageWidth="827" pageHeight="1169" math="0" shadow="0">
      <root>
        <mxCell id="0" />
        <mxCell id="1" parent="0" />
        <mxCell id="N3BqBY6gbxbEABjLlKTX-1" value="" style="rounded=0;whiteSpace=wrap;html=1;strokeWidth=7;" parent="1" vertex="1">
          <mxGeometry x="1" width="390" height="560" as="geometry" />
        </mxCell>
        <mxCell id="N3BqBY6gbxbEABjLlKTX-3" value="" style="endArrow=none;html=1;rounded=0;strokeWidth=7;endSize=6;" parent="1" edge="1">
          <mxGeometry width="50" height="50" relative="1" as="geometry">
            <mxPoint x="1" y="80" as="sourcePoint" />
            <mxPoint x="81" y="80" as="targetPoint" />
          </mxGeometry>
        </mxCell>
        <mxCell id="N3BqBY6gbxbEABjLlKTX-4" value="" style="endArrow=none;html=1;rounded=0;strokeWidth=7;endSize=6;" parent="1" edge="1">
          <mxGeometry width="50" height="50" relative="1" as="geometry">
            <mxPoint x="80" y="430" as="sourcePoint" />
            <mxPoint x="80" y="510" as="targetPoint" />
          </mxGeometry>
        </mxCell>
        <mxCell id="N3BqBY6gbxbEABjLlKTX-5" value="" style="endArrow=none;html=1;rounded=0;strokeWidth=7;endSize=6;" parent="1" edge="1">
          <mxGeometry width="50" height="50" relative="1" as="geometry">
            <mxPoint x="77" y="77" as="sourcePoint" />
            <mxPoint x="77" y="157" as="targetPoint" />
          </mxGeometry>
        </mxCell>
        <mxCell id="N3BqBY6gbxbEABjLlKTX-6" value="" style="endArrow=none;html=1;rounded=0;strokeWidth=7;endSize=6;" parent="1" edge="1">
          <mxGeometry width="50" height="50" relative="1" as="geometry">
            <mxPoint x="163" y="80" as="sourcePoint" />
            <mxPoint x="243" y="80" as="targetPoint" />
          </mxGeometry>
        </mxCell>
        <mxCell id="N3BqBY6gbxbEABjLlKTX-8" value="" style="endArrow=none;html=1;rounded=0;strokeWidth=7;endSize=6;" parent="1" edge="1">
          <mxGeometry width="50" height="50" relative="1" as="geometry">
            <mxPoint x="240" as="sourcePoint" />
            <mxPoint x="240" y="80" as="targetPoint" />
          </mxGeometry>
        </mxCell>
        <mxCell id="N3BqBY6gbxbEABjLlKTX-9" value="" style="endArrow=none;html=1;rounded=0;strokeWidth=7;endSize=6;" parent="1" edge="1">
          <mxGeometry width="50" height="50" relative="1" as="geometry">
            <mxPoint x="311" y="80" as="sourcePoint" />
            <mxPoint x="391" y="80" as="targetPoint" />
          </mxGeometry>
        </mxCell>
        <mxCell id="N3BqBY6gbxbEABjLlKTX-10" value="" style="endArrow=none;html=1;rounded=0;strokeWidth=7;endSize=6;" parent="1" edge="1">
          <mxGeometry width="50" height="50" relative="1" as="geometry">
            <mxPoint x="310" y="77" as="sourcePoint" />
            <mxPoint x="310" y="157" as="targetPoint" />
          </mxGeometry>
        </mxCell>
        <mxCell id="N3BqBY6gbxbEABjLlKTX-11" value="" style="endArrow=none;html=1;rounded=0;strokeWidth=7;endSize=6;" parent="1" edge="1">
          <mxGeometry width="50" height="50" relative="1" as="geometry">
            <mxPoint x="230" y="153" as="sourcePoint" />
            <mxPoint x="310" y="153" as="targetPoint" />
          </mxGeometry>
        </mxCell>
        <mxCell id="N3BqBY6gbxbEABjLlKTX-13" value="" style="endArrow=none;html=1;rounded=0;strokeWidth=7;endSize=6;" parent="1" edge="1">
          <mxGeometry width="50" height="50" relative="1" as="geometry">
            <mxPoint x="150" y="160" as="sourcePoint" />
            <mxPoint x="150" y="240" as="targetPoint" />
          </mxGeometry>
        </mxCell>
        <mxCell id="N3BqBY6gbxbEABjLlKTX-14" value="" style="endArrow=none;html=1;rounded=0;strokeWidth=7;endSize=6;" parent="1" edge="1">
          <mxGeometry width="50" height="50" relative="1" as="geometry">
            <mxPoint x="80" y="320" as="sourcePoint" />
            <mxPoint x="160" y="320" as="targetPoint" />
          </mxGeometry>
        </mxCell>
        <mxCell id="N3BqBY6gbxbEABjLlKTX-15" value="" style="endArrow=none;html=1;rounded=0;strokeWidth=7;endSize=6;" parent="1" edge="1">
          <mxGeometry width="50" height="50" relative="1" as="geometry">
            <mxPoint x="80" y="250" as="sourcePoint" />
            <mxPoint x="80" y="370" as="targetPoint" />
          </mxGeometry>
        </mxCell>
        <mxCell id="N3BqBY6gbxbEABjLlKTX-16" value="" style="endArrow=none;html=1;rounded=0;strokeWidth=7;endSize=6;" parent="1" edge="1">
          <mxGeometry width="50" height="50" relative="1" as="geometry">
            <mxPoint x="1" y="366" as="sourcePoint" />
            <mxPoint x="81" y="366" as="targetPoint" />
          </mxGeometry>
        </mxCell>
        <mxCell id="N3BqBY6gbxbEABjLlKTX-17" value="" style="endArrow=none;html=1;rounded=0;strokeWidth=7;endSize=6;" parent="1" edge="1">
          <mxGeometry width="50" height="50" relative="1" as="geometry">
            <mxPoint x="310" y="243" as="sourcePoint" />
            <mxPoint x="310" y="323" as="targetPoint" />
          </mxGeometry>
        </mxCell>
        <mxCell id="N3BqBY6gbxbEABjLlKTX-18" value="" style="endArrow=none;html=1;rounded=0;strokeWidth=7;endSize=6;" parent="1" edge="1">
          <mxGeometry width="50" height="50" relative="1" as="geometry">
            <mxPoint x="147" y="240" as="sourcePoint" />
            <mxPoint x="227" y="240" as="targetPoint" />
          </mxGeometry>
        </mxCell>
        <mxCell id="N3BqBY6gbxbEABjLlKTX-19" value="" style="endArrow=none;html=1;rounded=0;strokeWidth=7;endSize=6;" parent="1" edge="1">
          <mxGeometry width="50" height="50" relative="1" as="geometry">
            <mxPoint x="230" y="320" as="sourcePoint" />
            <mxPoint x="310" y="320" as="targetPoint" />
          </mxGeometry>
        </mxCell>
        <mxCell id="N3BqBY6gbxbEABjLlKTX-20" value="" style="endArrow=none;html=1;rounded=0;strokeWidth=7;endSize=6;" parent="1" edge="1">
          <mxGeometry width="50" height="50" relative="1" as="geometry">
            <mxPoint x="230" y="317" as="sourcePoint" />
            <mxPoint x="230" y="397" as="targetPoint" />
          </mxGeometry>
        </mxCell>
        <mxCell id="N3BqBY6gbxbEABjLlKTX-21" value="" style="endArrow=none;html=1;rounded=0;strokeWidth=7;endSize=6;" parent="1" edge="1">
          <mxGeometry width="50" height="50" relative="1" as="geometry">
            <mxPoint x="154" y="399" as="sourcePoint" />
            <mxPoint x="234" y="399" as="targetPoint" />
          </mxGeometry>
        </mxCell>
        <mxCell id="N3BqBY6gbxbEABjLlKTX-23" value="" style="endArrow=none;html=1;rounded=0;strokeWidth=7;endSize=6;" parent="1" edge="1">
          <mxGeometry width="50" height="50" relative="1" as="geometry">
            <mxPoint x="158" y="400" as="sourcePoint" />
            <mxPoint x="158" y="510" as="targetPoint" />
          </mxGeometry>
        </mxCell>
        <mxCell id="N3BqBY6gbxbEABjLlKTX-24" value="" style="endArrow=none;html=1;rounded=0;strokeWidth=7;endSize=6;" parent="1" edge="1">
          <mxGeometry width="50" height="50" relative="1" as="geometry">
            <mxPoint x="76" y="430" as="sourcePoint" />
            <mxPoint x="156" y="430" as="targetPoint" />
          </mxGeometry>
        </mxCell>
        <mxCell id="N3BqBY6gbxbEABjLlKTX-25" value="" style="endArrow=none;html=1;rounded=0;strokeWidth=7;endSize=6;" parent="1" edge="1">
          <mxGeometry width="50" height="50" relative="1" as="geometry">
            <mxPoint x="229" y="450" as="sourcePoint" />
            <mxPoint x="309" y="450" as="targetPoint" />
          </mxGeometry>
        </mxCell>
        <mxCell id="N3BqBY6gbxbEABjLlKTX-26" value="" style="endArrow=none;html=1;rounded=0;strokeWidth=7;endSize=6;" parent="1" edge="1">
          <mxGeometry width="50" height="50" relative="1" as="geometry">
            <mxPoint x="232" y="450" as="sourcePoint" />
            <mxPoint x="232" y="510" as="targetPoint" />
          </mxGeometry>
        </mxCell>
        <mxCell id="vQWdCR0RZfKfUGTafbh_-1" value="" style="rounded=0;whiteSpace=wrap;html=1;strokeWidth=7;movable=0;resizable=0;rotatable=0;deletable=0;editable=0;locked=1;connectable=0;" vertex="1" parent="1">
          <mxGeometry x="-730" y="50" width="390" height="560" as="geometry" />
        </mxCell>
        <mxCell id="vQWdCR0RZfKfUGTafbh_-2" value="" style="endArrow=none;html=1;rounded=0;strokeWidth=7;endSize=6;movable=0;resizable=0;rotatable=0;deletable=0;editable=0;locked=1;connectable=0;" edge="1" parent="1">
          <mxGeometry width="50" height="50" relative="1" as="geometry">
            <mxPoint x="-730" y="130" as="sourcePoint" />
            <mxPoint x="-650" y="130" as="targetPoint" />
          </mxGeometry>
        </mxCell>
        <mxCell id="vQWdCR0RZfKfUGTafbh_-3" value="" style="endArrow=none;html=1;rounded=0;strokeWidth=7;endSize=6;movable=0;resizable=0;rotatable=0;deletable=0;editable=0;locked=1;connectable=0;" edge="1" parent="1">
          <mxGeometry width="50" height="50" relative="1" as="geometry">
            <mxPoint x="-651" y="480" as="sourcePoint" />
            <mxPoint x="-651" y="560" as="targetPoint" />
          </mxGeometry>
        </mxCell>
        <mxCell id="vQWdCR0RZfKfUGTafbh_-4" value="" style="endArrow=none;html=1;rounded=0;strokeWidth=7;endSize=6;movable=0;resizable=0;rotatable=0;deletable=0;editable=0;locked=1;connectable=0;" edge="1" parent="1">
          <mxGeometry width="50" height="50" relative="1" as="geometry">
            <mxPoint x="-654" y="127" as="sourcePoint" />
            <mxPoint x="-654" y="207" as="targetPoint" />
          </mxGeometry>
        </mxCell>
        <mxCell id="vQWdCR0RZfKfUGTafbh_-5" value="" style="endArrow=none;html=1;rounded=0;strokeWidth=7;endSize=6;movable=0;resizable=0;rotatable=0;deletable=0;editable=0;locked=1;connectable=0;" edge="1" parent="1">
          <mxGeometry width="50" height="50" relative="1" as="geometry">
            <mxPoint x="-568" y="130" as="sourcePoint" />
            <mxPoint x="-488" y="130" as="targetPoint" />
          </mxGeometry>
        </mxCell>
        <mxCell id="vQWdCR0RZfKfUGTafbh_-6" value="" style="endArrow=none;html=1;rounded=0;strokeWidth=7;endSize=6;movable=0;resizable=0;rotatable=0;deletable=0;editable=0;locked=1;connectable=0;" edge="1" parent="1">
          <mxGeometry width="50" height="50" relative="1" as="geometry">
            <mxPoint x="-491" y="50" as="sourcePoint" />
            <mxPoint x="-491" y="130" as="targetPoint" />
          </mxGeometry>
        </mxCell>
        <mxCell id="vQWdCR0RZfKfUGTafbh_-7" value="" style="endArrow=none;html=1;rounded=0;strokeWidth=7;endSize=6;movable=0;resizable=0;rotatable=0;deletable=0;editable=0;locked=1;connectable=0;" edge="1" parent="1">
          <mxGeometry width="50" height="50" relative="1" as="geometry">
            <mxPoint x="-420" y="130" as="sourcePoint" />
            <mxPoint x="-340" y="130" as="targetPoint" />
          </mxGeometry>
        </mxCell>
        <mxCell id="vQWdCR0RZfKfUGTafbh_-8" value="" style="endArrow=none;html=1;rounded=0;strokeWidth=7;endSize=6;movable=0;resizable=0;rotatable=0;deletable=0;editable=0;locked=1;connectable=0;" edge="1" parent="1">
          <mxGeometry width="50" height="50" relative="1" as="geometry">
            <mxPoint x="-421" y="127" as="sourcePoint" />
            <mxPoint x="-421" y="207" as="targetPoint" />
          </mxGeometry>
        </mxCell>
        <mxCell id="vQWdCR0RZfKfUGTafbh_-9" value="" style="endArrow=none;html=1;rounded=0;strokeWidth=7;endSize=6;movable=0;resizable=0;rotatable=0;deletable=0;editable=0;locked=1;connectable=0;" edge="1" parent="1">
          <mxGeometry width="50" height="50" relative="1" as="geometry">
            <mxPoint x="-501" y="203" as="sourcePoint" />
            <mxPoint x="-421" y="203" as="targetPoint" />
          </mxGeometry>
        </mxCell>
        <mxCell id="vQWdCR0RZfKfUGTafbh_-10" value="" style="endArrow=none;html=1;rounded=0;strokeWidth=7;endSize=6;movable=0;resizable=0;rotatable=0;deletable=0;editable=0;locked=1;connectable=0;" edge="1" parent="1">
          <mxGeometry width="50" height="50" relative="1" as="geometry">
            <mxPoint x="-581" y="210" as="sourcePoint" />
            <mxPoint x="-581" y="290" as="targetPoint" />
          </mxGeometry>
        </mxCell>
        <mxCell id="vQWdCR0RZfKfUGTafbh_-11" value="" style="endArrow=none;html=1;rounded=0;strokeWidth=7;endSize=6;movable=0;resizable=0;rotatable=0;deletable=0;editable=0;locked=1;connectable=0;" edge="1" parent="1">
          <mxGeometry width="50" height="50" relative="1" as="geometry">
            <mxPoint x="-651" y="370" as="sourcePoint" />
            <mxPoint x="-571" y="370" as="targetPoint" />
          </mxGeometry>
        </mxCell>
        <mxCell id="vQWdCR0RZfKfUGTafbh_-12" value="" style="endArrow=none;html=1;rounded=0;strokeWidth=7;endSize=6;movable=0;resizable=0;rotatable=0;deletable=0;editable=0;locked=1;connectable=0;" edge="1" parent="1">
          <mxGeometry width="50" height="50" relative="1" as="geometry">
            <mxPoint x="-651" y="300" as="sourcePoint" />
            <mxPoint x="-651" y="420" as="targetPoint" />
          </mxGeometry>
        </mxCell>
        <mxCell id="vQWdCR0RZfKfUGTafbh_-13" value="" style="endArrow=none;html=1;rounded=0;strokeWidth=7;endSize=6;movable=0;resizable=0;rotatable=0;deletable=0;editable=0;locked=1;connectable=0;" edge="1" parent="1">
          <mxGeometry width="50" height="50" relative="1" as="geometry">
            <mxPoint x="-730" y="416" as="sourcePoint" />
            <mxPoint x="-650" y="416" as="targetPoint" />
          </mxGeometry>
        </mxCell>
        <mxCell id="vQWdCR0RZfKfUGTafbh_-14" value="" style="endArrow=none;html=1;rounded=0;strokeWidth=7;endSize=6;movable=0;resizable=0;rotatable=0;deletable=0;editable=0;locked=1;connectable=0;" edge="1" parent="1">
          <mxGeometry width="50" height="50" relative="1" as="geometry">
            <mxPoint x="-421" y="293" as="sourcePoint" />
            <mxPoint x="-421" y="373" as="targetPoint" />
          </mxGeometry>
        </mxCell>
        <mxCell id="vQWdCR0RZfKfUGTafbh_-15" value="" style="endArrow=none;html=1;rounded=0;strokeWidth=7;endSize=6;movable=0;resizable=0;rotatable=0;deletable=0;editable=0;locked=1;connectable=0;" edge="1" parent="1">
          <mxGeometry width="50" height="50" relative="1" as="geometry">
            <mxPoint x="-584" y="290" as="sourcePoint" />
            <mxPoint x="-504" y="290" as="targetPoint" />
          </mxGeometry>
        </mxCell>
        <mxCell id="vQWdCR0RZfKfUGTafbh_-16" value="" style="endArrow=none;html=1;rounded=0;strokeWidth=7;endSize=6;movable=0;resizable=0;rotatable=0;deletable=0;editable=0;locked=1;connectable=0;" edge="1" parent="1">
          <mxGeometry width="50" height="50" relative="1" as="geometry">
            <mxPoint x="-501" y="370" as="sourcePoint" />
            <mxPoint x="-421" y="370" as="targetPoint" />
          </mxGeometry>
        </mxCell>
        <mxCell id="vQWdCR0RZfKfUGTafbh_-17" value="" style="endArrow=none;html=1;rounded=0;strokeWidth=7;endSize=6;movable=0;resizable=0;rotatable=0;deletable=0;editable=0;locked=1;connectable=0;" edge="1" parent="1">
          <mxGeometry width="50" height="50" relative="1" as="geometry">
            <mxPoint x="-501" y="367" as="sourcePoint" />
            <mxPoint x="-501" y="447" as="targetPoint" />
          </mxGeometry>
        </mxCell>
        <mxCell id="vQWdCR0RZfKfUGTafbh_-18" value="" style="endArrow=none;html=1;rounded=0;strokeWidth=7;endSize=6;movable=0;resizable=0;rotatable=0;deletable=0;editable=0;locked=1;connectable=0;" edge="1" parent="1">
          <mxGeometry width="50" height="50" relative="1" as="geometry">
            <mxPoint x="-577" y="449" as="sourcePoint" />
            <mxPoint x="-497" y="449" as="targetPoint" />
          </mxGeometry>
        </mxCell>
        <mxCell id="vQWdCR0RZfKfUGTafbh_-19" value="" style="endArrow=none;html=1;rounded=0;strokeWidth=7;endSize=6;movable=0;resizable=0;rotatable=0;deletable=0;editable=0;locked=1;connectable=0;" edge="1" parent="1">
          <mxGeometry width="50" height="50" relative="1" as="geometry">
            <mxPoint x="-573" y="450" as="sourcePoint" />
            <mxPoint x="-573" y="560" as="targetPoint" />
          </mxGeometry>
        </mxCell>
        <mxCell id="vQWdCR0RZfKfUGTafbh_-20" value="" style="endArrow=none;html=1;rounded=0;strokeWidth=7;endSize=6;movable=0;resizable=0;rotatable=0;deletable=0;editable=0;locked=1;connectable=0;" edge="1" parent="1">
          <mxGeometry width="50" height="50" relative="1" as="geometry">
            <mxPoint x="-655" y="480" as="sourcePoint" />
            <mxPoint x="-575" y="480" as="targetPoint" />
          </mxGeometry>
        </mxCell>
        <mxCell id="vQWdCR0RZfKfUGTafbh_-21" value="" style="endArrow=none;html=1;rounded=0;strokeWidth=7;endSize=6;movable=0;resizable=0;rotatable=0;deletable=0;editable=0;locked=1;connectable=0;" edge="1" parent="1">
          <mxGeometry width="50" height="50" relative="1" as="geometry">
            <mxPoint x="-502" y="500" as="sourcePoint" />
            <mxPoint x="-422" y="500" as="targetPoint" />
          </mxGeometry>
        </mxCell>
        <mxCell id="vQWdCR0RZfKfUGTafbh_-22" value="" style="endArrow=none;html=1;rounded=0;strokeWidth=7;endSize=6;movable=0;resizable=0;rotatable=0;deletable=0;editable=0;locked=1;connectable=0;" edge="1" parent="1">
          <mxGeometry width="50" height="50" relative="1" as="geometry">
            <mxPoint x="-499" y="500" as="sourcePoint" />
            <mxPoint x="-499" y="560" as="targetPoint" />
          </mxGeometry>
        </mxCell>
        <mxCell id="vQWdCR0RZfKfUGTafbh_-23" style="rounded=0;orthogonalLoop=1;jettySize=auto;html=1;exitX=0.5;exitY=1;exitDx=0;exitDy=0;entryX=0.5;entryY=0;entryDx=0;entryDy=0;endArrow=none;endFill=0;fillColor=#0050ef;strokeColor=#001DBC;" edge="1" parent="1" source="vQWdCR0RZfKfUGTafbh_-24" target="vQWdCR0RZfKfUGTafbh_-25">
          <mxGeometry relative="1" as="geometry" />
        </mxCell>
        <mxCell id="vQWdCR0RZfKfUGTafbh_-55" style="edgeStyle=none;shape=connector;rounded=0;orthogonalLoop=1;jettySize=auto;html=1;exitX=1;exitY=1;exitDx=0;exitDy=0;entryX=0;entryY=0;entryDx=0;entryDy=0;labelBackgroundColor=default;strokeColor=#001DBC;fontFamily=Helvetica;fontSize=11;fontColor=default;endArrow=none;endFill=0;fillColor=#0050ef;" edge="1" parent="1" source="vQWdCR0RZfKfUGTafbh_-24" target="vQWdCR0RZfKfUGTafbh_-27">
          <mxGeometry relative="1" as="geometry" />
        </mxCell>
        <mxCell id="vQWdCR0RZfKfUGTafbh_-24" value="" style="ellipse;whiteSpace=wrap;html=1;aspect=fixed;fillColor=none;fontColor=#ffffff;strokeColor=#001DBC;" vertex="1" parent="1">
          <mxGeometry x="-620" y="90" width="10" height="10" as="geometry" />
        </mxCell>
        <mxCell id="vQWdCR0RZfKfUGTafbh_-40" style="shape=connector;rounded=0;orthogonalLoop=1;jettySize=auto;html=1;exitX=1;exitY=1;exitDx=0;exitDy=0;entryX=0;entryY=0;entryDx=0;entryDy=0;labelBackgroundColor=default;strokeColor=#001DBC;fontFamily=Helvetica;fontSize=11;fontColor=default;endArrow=none;endFill=0;fillColor=#0050ef;" edge="1" parent="1" source="vQWdCR0RZfKfUGTafbh_-25" target="vQWdCR0RZfKfUGTafbh_-31">
          <mxGeometry relative="1" as="geometry" />
        </mxCell>
        <mxCell id="vQWdCR0RZfKfUGTafbh_-25" value="" style="ellipse;whiteSpace=wrap;html=1;aspect=fixed;fillColor=none;strokeColor=#001DBC;fontColor=#ffffff;" vertex="1" parent="1">
          <mxGeometry x="-630" y="240" width="10" height="10" as="geometry" />
        </mxCell>
        <mxCell id="vQWdCR0RZfKfUGTafbh_-39" style="edgeStyle=orthogonalEdgeStyle;rounded=0;orthogonalLoop=1;jettySize=auto;html=1;exitX=1;exitY=0.5;exitDx=0;exitDy=0;entryX=0;entryY=0.5;entryDx=0;entryDy=0;endArrow=none;strokeColor=#001DBC;endFill=0;fillColor=#0050ef;" edge="1" parent="1" source="vQWdCR0RZfKfUGTafbh_-26" target="vQWdCR0RZfKfUGTafbh_-25">
          <mxGeometry relative="1" as="geometry" />
        </mxCell>
        <mxCell id="vQWdCR0RZfKfUGTafbh_-26" value="" style="ellipse;whiteSpace=wrap;html=1;aspect=fixed;fillColor=none;strokeColor=#001DBC;fontColor=#ffffff;" vertex="1" parent="1">
          <mxGeometry x="-700" y="240" width="10" height="10" as="geometry" />
        </mxCell>
        <mxCell id="vQWdCR0RZfKfUGTafbh_-41" style="edgeStyle=none;shape=connector;rounded=0;orthogonalLoop=1;jettySize=auto;html=1;exitX=0;exitY=1;exitDx=0;exitDy=0;entryX=1;entryY=0;entryDx=0;entryDy=0;labelBackgroundColor=default;strokeColor=#001DBC;fontFamily=Helvetica;fontSize=11;fontColor=default;endArrow=none;endFill=0;fillColor=#0050ef;" edge="1" parent="1" source="vQWdCR0RZfKfUGTafbh_-27" target="vQWdCR0RZfKfUGTafbh_-25">
          <mxGeometry relative="1" as="geometry" />
        </mxCell>
        <mxCell id="vQWdCR0RZfKfUGTafbh_-42" style="edgeStyle=none;shape=connector;rounded=0;orthogonalLoop=1;jettySize=auto;html=1;exitX=1;exitY=0.5;exitDx=0;exitDy=0;entryX=0;entryY=0.5;entryDx=0;entryDy=0;labelBackgroundColor=default;strokeColor=#001DBC;fontFamily=Helvetica;fontSize=11;fontColor=default;endArrow=none;endFill=0;fillColor=#0050ef;" edge="1" parent="1" source="vQWdCR0RZfKfUGTafbh_-27" target="vQWdCR0RZfKfUGTafbh_-28">
          <mxGeometry relative="1" as="geometry" />
        </mxCell>
        <mxCell id="vQWdCR0RZfKfUGTafbh_-43" style="edgeStyle=none;shape=connector;rounded=0;orthogonalLoop=1;jettySize=auto;html=1;exitX=0.5;exitY=1;exitDx=0;exitDy=0;entryX=0.5;entryY=0;entryDx=0;entryDy=0;labelBackgroundColor=default;strokeColor=#001DBC;fontFamily=Helvetica;fontSize=11;fontColor=default;endArrow=none;endFill=0;fillColor=#0050ef;" edge="1" parent="1" source="vQWdCR0RZfKfUGTafbh_-27" target="vQWdCR0RZfKfUGTafbh_-29">
          <mxGeometry relative="1" as="geometry" />
        </mxCell>
        <mxCell id="vQWdCR0RZfKfUGTafbh_-27" value="" style="ellipse;whiteSpace=wrap;html=1;aspect=fixed;fillColor=none;strokeColor=#001DBC;fontColor=#ffffff;" vertex="1" parent="1">
          <mxGeometry x="-550" y="170" width="10" height="10" as="geometry" />
        </mxCell>
        <mxCell id="vQWdCR0RZfKfUGTafbh_-57" style="edgeStyle=none;shape=connector;rounded=0;orthogonalLoop=1;jettySize=auto;html=1;exitX=1;exitY=0;exitDx=0;exitDy=0;entryX=0;entryY=1;entryDx=0;entryDy=0;labelBackgroundColor=default;strokeColor=#001DBC;fontFamily=Helvetica;fontSize=11;fontColor=default;endArrow=none;endFill=0;fillColor=#0050ef;" edge="1" parent="1" source="vQWdCR0RZfKfUGTafbh_-28" target="vQWdCR0RZfKfUGTafbh_-56">
          <mxGeometry relative="1" as="geometry" />
        </mxCell>
        <mxCell id="vQWdCR0RZfKfUGTafbh_-28" value="" style="ellipse;whiteSpace=wrap;html=1;aspect=fixed;fillColor=none;strokeColor=#001DBC;fontColor=#ffffff;" vertex="1" parent="1">
          <mxGeometry x="-470" y="160" width="10" height="10" as="geometry" />
        </mxCell>
        <mxCell id="vQWdCR0RZfKfUGTafbh_-44" style="edgeStyle=none;shape=connector;rounded=0;orthogonalLoop=1;jettySize=auto;html=1;exitX=1;exitY=0.5;exitDx=0;exitDy=0;entryX=0;entryY=0.5;entryDx=0;entryDy=0;labelBackgroundColor=default;strokeColor=#001DBC;fontFamily=Helvetica;fontSize=11;fontColor=default;endArrow=none;endFill=0;fillColor=#0050ef;" edge="1" parent="1" source="vQWdCR0RZfKfUGTafbh_-29" target="vQWdCR0RZfKfUGTafbh_-30">
          <mxGeometry relative="1" as="geometry" />
        </mxCell>
        <mxCell id="vQWdCR0RZfKfUGTafbh_-29" value="" style="ellipse;whiteSpace=wrap;html=1;aspect=fixed;fillColor=none;strokeColor=#001DBC;fontColor=#ffffff;" vertex="1" parent="1">
          <mxGeometry x="-530" y="240" width="10" height="10" as="geometry" />
        </mxCell>
        <mxCell id="vQWdCR0RZfKfUGTafbh_-45" style="edgeStyle=none;shape=connector;rounded=0;orthogonalLoop=1;jettySize=auto;html=1;exitX=0.5;exitY=1;exitDx=0;exitDy=0;entryX=0.5;entryY=0;entryDx=0;entryDy=0;labelBackgroundColor=default;strokeColor=#001DBC;fontFamily=Helvetica;fontSize=11;fontColor=default;endArrow=none;endFill=0;fillColor=#0050ef;" edge="1" parent="1" source="vQWdCR0RZfKfUGTafbh_-30" target="vQWdCR0RZfKfUGTafbh_-35">
          <mxGeometry relative="1" as="geometry" />
        </mxCell>
        <mxCell id="vQWdCR0RZfKfUGTafbh_-30" value="" style="ellipse;whiteSpace=wrap;html=1;aspect=fixed;fillColor=none;strokeColor=#001DBC;fontColor=#ffffff;" vertex="1" parent="1">
          <mxGeometry x="-390" y="240" width="10" height="10" as="geometry" />
        </mxCell>
        <mxCell id="vQWdCR0RZfKfUGTafbh_-53" style="edgeStyle=none;shape=connector;rounded=0;orthogonalLoop=1;jettySize=auto;html=1;exitX=0.5;exitY=1;exitDx=0;exitDy=0;entryX=1;entryY=0;entryDx=0;entryDy=0;labelBackgroundColor=default;strokeColor=#001DBC;fontFamily=Helvetica;fontSize=11;fontColor=default;endArrow=none;endFill=0;fillColor=#0050ef;" edge="1" parent="1" source="vQWdCR0RZfKfUGTafbh_-31" target="vQWdCR0RZfKfUGTafbh_-32">
          <mxGeometry relative="1" as="geometry" />
        </mxCell>
        <mxCell id="vQWdCR0RZfKfUGTafbh_-54" style="edgeStyle=none;shape=connector;rounded=0;orthogonalLoop=1;jettySize=auto;html=1;exitX=1;exitY=0.5;exitDx=0;exitDy=0;entryX=0;entryY=1;entryDx=0;entryDy=0;labelBackgroundColor=default;strokeColor=#001DBC;fontFamily=Helvetica;fontSize=11;fontColor=default;endArrow=none;endFill=0;fillColor=#0050ef;" edge="1" parent="1" source="vQWdCR0RZfKfUGTafbh_-31" target="vQWdCR0RZfKfUGTafbh_-30">
          <mxGeometry relative="1" as="geometry" />
        </mxCell>
        <mxCell id="vQWdCR0RZfKfUGTafbh_-31" value="" style="ellipse;whiteSpace=wrap;html=1;aspect=fixed;fillColor=none;strokeColor=#001DBC;fontColor=#ffffff;" vertex="1" parent="1">
          <mxGeometry x="-560" y="340" width="10" height="10" as="geometry" />
        </mxCell>
        <mxCell id="vQWdCR0RZfKfUGTafbh_-32" value="" style="ellipse;whiteSpace=wrap;html=1;aspect=fixed;fillColor=none;strokeColor=#001DBC;fontColor=#ffffff;" vertex="1" parent="1">
          <mxGeometry x="-590" y="410" width="10" height="10" as="geometry" />
        </mxCell>
        <mxCell id="vQWdCR0RZfKfUGTafbh_-51" style="edgeStyle=none;shape=connector;rounded=0;orthogonalLoop=1;jettySize=auto;html=1;exitX=0.5;exitY=1;exitDx=0;exitDy=0;entryX=0.5;entryY=0;entryDx=0;entryDy=0;labelBackgroundColor=default;strokeColor=#001DBC;fontFamily=Helvetica;fontSize=11;fontColor=default;endArrow=none;endFill=0;fillColor=#0050ef;" edge="1" parent="1" source="vQWdCR0RZfKfUGTafbh_-33" target="vQWdCR0RZfKfUGTafbh_-34">
          <mxGeometry relative="1" as="geometry" />
        </mxCell>
        <mxCell id="vQWdCR0RZfKfUGTafbh_-52" style="edgeStyle=none;shape=connector;rounded=0;orthogonalLoop=1;jettySize=auto;html=1;exitX=1;exitY=0;exitDx=0;exitDy=0;entryX=0;entryY=1;entryDx=0;entryDy=0;labelBackgroundColor=default;strokeColor=#001DBC;fontFamily=Helvetica;fontSize=11;fontColor=default;endArrow=none;endFill=0;fillColor=#0050ef;" edge="1" parent="1" source="vQWdCR0RZfKfUGTafbh_-33" target="vQWdCR0RZfKfUGTafbh_-32">
          <mxGeometry relative="1" as="geometry" />
        </mxCell>
        <mxCell id="vQWdCR0RZfKfUGTafbh_-33" value="" style="ellipse;whiteSpace=wrap;html=1;aspect=fixed;fillColor=none;strokeColor=#001DBC;fontColor=#ffffff;" vertex="1" parent="1">
          <mxGeometry x="-700" y="460" width="10" height="10" as="geometry" />
        </mxCell>
        <mxCell id="vQWdCR0RZfKfUGTafbh_-50" style="edgeStyle=none;shape=connector;rounded=0;orthogonalLoop=1;jettySize=auto;html=1;exitX=1;exitY=0.5;exitDx=0;exitDy=0;entryX=0;entryY=0.5;entryDx=0;entryDy=0;labelBackgroundColor=default;strokeColor=#001DBC;fontFamily=Helvetica;fontSize=11;fontColor=default;endArrow=none;endFill=0;fillColor=#0050ef;" edge="1" parent="1" source="vQWdCR0RZfKfUGTafbh_-34" target="vQWdCR0RZfKfUGTafbh_-38">
          <mxGeometry relative="1" as="geometry" />
        </mxCell>
        <mxCell id="vQWdCR0RZfKfUGTafbh_-34" value="" style="ellipse;whiteSpace=wrap;html=1;aspect=fixed;fillColor=none;strokeColor=#001DBC;fontColor=#ffffff;" vertex="1" parent="1">
          <mxGeometry x="-700" y="575" width="10" height="10" as="geometry" />
        </mxCell>
        <mxCell id="vQWdCR0RZfKfUGTafbh_-46" style="edgeStyle=none;shape=connector;rounded=0;orthogonalLoop=1;jettySize=auto;html=1;exitX=0.5;exitY=1;exitDx=0;exitDy=0;entryX=0.5;entryY=0;entryDx=0;entryDy=0;labelBackgroundColor=default;strokeColor=#001DBC;fontFamily=Helvetica;fontSize=11;fontColor=default;endArrow=none;endFill=0;fillColor=#0050ef;" edge="1" parent="1" source="vQWdCR0RZfKfUGTafbh_-35" target="vQWdCR0RZfKfUGTafbh_-36">
          <mxGeometry relative="1" as="geometry" />
        </mxCell>
        <mxCell id="vQWdCR0RZfKfUGTafbh_-35" value="" style="ellipse;whiteSpace=wrap;html=1;aspect=fixed;fillColor=none;strokeColor=#001DBC;fontColor=#ffffff;" vertex="1" parent="1">
          <mxGeometry x="-390" y="430" width="10" height="10" as="geometry" />
        </mxCell>
        <mxCell id="vQWdCR0RZfKfUGTafbh_-36" value="" style="ellipse;whiteSpace=wrap;html=1;aspect=fixed;fillColor=none;strokeColor=#001DBC;fontColor=#ffffff;" vertex="1" parent="1">
          <mxGeometry x="-390" y="575" width="10" height="10" as="geometry" />
        </mxCell>
        <mxCell id="vQWdCR0RZfKfUGTafbh_-47" style="edgeStyle=none;shape=connector;rounded=0;orthogonalLoop=1;jettySize=auto;html=1;exitX=1.004;exitY=0.373;exitDx=0;exitDy=0;entryX=0;entryY=0.5;entryDx=0;entryDy=0;labelBackgroundColor=default;strokeColor=#001DBC;fontFamily=Helvetica;fontSize=11;fontColor=default;endArrow=none;endFill=0;fillColor=#0050ef;exitPerimeter=0;" edge="1" parent="1" source="vQWdCR0RZfKfUGTafbh_-37" target="vQWdCR0RZfKfUGTafbh_-35">
          <mxGeometry relative="1" as="geometry" />
        </mxCell>
        <mxCell id="vQWdCR0RZfKfUGTafbh_-48" style="edgeStyle=none;shape=connector;rounded=0;orthogonalLoop=1;jettySize=auto;html=1;exitX=0.5;exitY=1;exitDx=0;exitDy=0;entryX=0.5;entryY=0;entryDx=0;entryDy=0;labelBackgroundColor=default;strokeColor=#001DBC;fontFamily=Helvetica;fontSize=11;fontColor=default;endArrow=none;endFill=0;fillColor=#0050ef;" edge="1" parent="1" source="vQWdCR0RZfKfUGTafbh_-37" target="vQWdCR0RZfKfUGTafbh_-38">
          <mxGeometry relative="1" as="geometry" />
        </mxCell>
        <mxCell id="vQWdCR0RZfKfUGTafbh_-37" value="" style="ellipse;whiteSpace=wrap;html=1;aspect=fixed;fillColor=none;strokeColor=#001DBC;fontColor=#ffffff;" vertex="1" parent="1">
          <mxGeometry x="-520" y="470" width="10" height="10" as="geometry" />
        </mxCell>
        <mxCell id="vQWdCR0RZfKfUGTafbh_-49" style="edgeStyle=none;shape=connector;rounded=0;orthogonalLoop=1;jettySize=auto;html=1;exitX=1;exitY=0.5;exitDx=0;exitDy=0;entryX=0;entryY=0.5;entryDx=0;entryDy=0;labelBackgroundColor=default;strokeColor=#001DBC;fontFamily=Helvetica;fontSize=11;fontColor=default;endArrow=none;endFill=0;fillColor=#0050ef;" edge="1" parent="1" source="vQWdCR0RZfKfUGTafbh_-38" target="vQWdCR0RZfKfUGTafbh_-36">
          <mxGeometry relative="1" as="geometry" />
        </mxCell>
        <mxCell id="vQWdCR0RZfKfUGTafbh_-38" value="" style="ellipse;whiteSpace=wrap;html=1;aspect=fixed;fillColor=none;strokeColor=#001DBC;fontColor=#ffffff;" vertex="1" parent="1">
          <mxGeometry x="-550" y="575" width="10" height="10" as="geometry" />
        </mxCell>
        <mxCell id="vQWdCR0RZfKfUGTafbh_-56" value="" style="ellipse;whiteSpace=wrap;html=1;aspect=fixed;fillColor=none;strokeColor=#001DBC;fontColor=#ffffff;" vertex="1" parent="1">
          <mxGeometry x="-418" y="80" width="10" height="10" as="geometry" />
        </mxCell>
      </root>
    </mxGraphModel>
  </diagram>
  <diagram id="ZZSCOqrjMB_in7npAJQg" name="Page-2">
    <mxGraphModel dx="309" dy="679" grid="1" gridSize="10" guides="1" tooltips="1" connect="1" arrows="1" fold="1" page="1" pageScale="1" pageWidth="827" pageHeight="1169" math="0" shadow="0">
      <root>
        <mxCell id="0" />
        <mxCell id="1" parent="0" />
        <mxCell id="4-8o9Q_LbCTy3XWPZkN8-1" value="" style="rounded=0;whiteSpace=wrap;html=1;strokeWidth=7;movable=0;resizable=0;rotatable=0;deletable=0;editable=0;locked=1;connectable=0;" vertex="1" parent="1">
          <mxGeometry x="870" y="1210" width="390" height="560" as="geometry" />
        </mxCell>
        <mxCell id="4-8o9Q_LbCTy3XWPZkN8-2" value="" style="endArrow=none;html=1;rounded=0;strokeWidth=7;endSize=6;movable=0;resizable=0;rotatable=0;deletable=0;editable=0;locked=1;connectable=0;" edge="1" parent="1">
          <mxGeometry width="50" height="50" relative="1" as="geometry">
            <mxPoint x="870" y="1290" as="sourcePoint" />
            <mxPoint x="950" y="1290" as="targetPoint" />
          </mxGeometry>
        </mxCell>
        <mxCell id="4-8o9Q_LbCTy3XWPZkN8-3" value="" style="endArrow=none;html=1;rounded=0;strokeWidth=7;endSize=6;movable=0;resizable=0;rotatable=0;deletable=0;editable=0;locked=1;connectable=0;" edge="1" parent="1">
          <mxGeometry width="50" height="50" relative="1" as="geometry">
            <mxPoint x="949" y="1640" as="sourcePoint" />
            <mxPoint x="949" y="1720" as="targetPoint" />
          </mxGeometry>
        </mxCell>
        <mxCell id="4-8o9Q_LbCTy3XWPZkN8-4" value="" style="endArrow=none;html=1;rounded=0;strokeWidth=7;endSize=6;movable=0;resizable=0;rotatable=0;deletable=0;editable=0;locked=1;connectable=0;" edge="1" parent="1">
          <mxGeometry width="50" height="50" relative="1" as="geometry">
            <mxPoint x="946" y="1287" as="sourcePoint" />
            <mxPoint x="946" y="1367" as="targetPoint" />
          </mxGeometry>
        </mxCell>
        <mxCell id="4-8o9Q_LbCTy3XWPZkN8-5" value="" style="endArrow=none;html=1;rounded=0;strokeWidth=7;endSize=6;movable=0;resizable=0;rotatable=0;deletable=0;editable=0;locked=1;connectable=0;" edge="1" parent="1">
          <mxGeometry width="50" height="50" relative="1" as="geometry">
            <mxPoint x="1032" y="1290" as="sourcePoint" />
            <mxPoint x="1112" y="1290" as="targetPoint" />
          </mxGeometry>
        </mxCell>
        <mxCell id="4-8o9Q_LbCTy3XWPZkN8-6" value="" style="endArrow=none;html=1;rounded=0;strokeWidth=7;endSize=6;movable=0;resizable=0;rotatable=0;deletable=0;editable=0;locked=1;connectable=0;" edge="1" parent="1">
          <mxGeometry width="50" height="50" relative="1" as="geometry">
            <mxPoint x="1109" y="1210" as="sourcePoint" />
            <mxPoint x="1109" y="1290" as="targetPoint" />
          </mxGeometry>
        </mxCell>
        <mxCell id="4-8o9Q_LbCTy3XWPZkN8-7" value="" style="endArrow=none;html=1;rounded=0;strokeWidth=7;endSize=6;movable=0;resizable=0;rotatable=0;deletable=0;editable=0;locked=1;connectable=0;" edge="1" parent="1">
          <mxGeometry width="50" height="50" relative="1" as="geometry">
            <mxPoint x="1179" y="1290" as="sourcePoint" />
            <mxPoint x="1259" y="1290" as="targetPoint" />
          </mxGeometry>
        </mxCell>
        <mxCell id="4-8o9Q_LbCTy3XWPZkN8-8" value="" style="endArrow=none;html=1;rounded=0;strokeWidth=7;endSize=6;movable=0;resizable=0;rotatable=0;deletable=0;editable=0;locked=1;connectable=0;" edge="1" parent="1">
          <mxGeometry width="50" height="50" relative="1" as="geometry">
            <mxPoint x="1179" y="1287" as="sourcePoint" />
            <mxPoint x="1179" y="1367" as="targetPoint" />
          </mxGeometry>
        </mxCell>
        <mxCell id="4-8o9Q_LbCTy3XWPZkN8-9" value="" style="endArrow=none;html=1;rounded=0;strokeWidth=7;endSize=6;movable=0;resizable=0;rotatable=0;deletable=0;editable=0;locked=1;connectable=0;" edge="1" parent="1">
          <mxGeometry width="50" height="50" relative="1" as="geometry">
            <mxPoint x="1099" y="1363" as="sourcePoint" />
            <mxPoint x="1179" y="1363" as="targetPoint" />
          </mxGeometry>
        </mxCell>
        <mxCell id="4-8o9Q_LbCTy3XWPZkN8-10" value="" style="endArrow=none;html=1;rounded=0;strokeWidth=7;endSize=6;movable=0;resizable=0;rotatable=0;deletable=0;editable=0;locked=1;connectable=0;" edge="1" parent="1">
          <mxGeometry width="50" height="50" relative="1" as="geometry">
            <mxPoint x="1019" y="1370" as="sourcePoint" />
            <mxPoint x="1019" y="1450" as="targetPoint" />
          </mxGeometry>
        </mxCell>
        <mxCell id="4-8o9Q_LbCTy3XWPZkN8-11" value="" style="endArrow=none;html=1;rounded=0;strokeWidth=7;endSize=6;movable=0;resizable=0;rotatable=0;deletable=0;editable=0;locked=1;connectable=0;" edge="1" parent="1">
          <mxGeometry width="50" height="50" relative="1" as="geometry">
            <mxPoint x="949" y="1530" as="sourcePoint" />
            <mxPoint x="1029" y="1530" as="targetPoint" />
          </mxGeometry>
        </mxCell>
        <mxCell id="4-8o9Q_LbCTy3XWPZkN8-12" value="" style="endArrow=none;html=1;rounded=0;strokeWidth=7;endSize=6;movable=0;resizable=0;rotatable=0;deletable=0;editable=0;locked=1;connectable=0;" edge="1" parent="1">
          <mxGeometry width="50" height="50" relative="1" as="geometry">
            <mxPoint x="949" y="1460" as="sourcePoint" />
            <mxPoint x="949" y="1580" as="targetPoint" />
          </mxGeometry>
        </mxCell>
        <mxCell id="4-8o9Q_LbCTy3XWPZkN8-13" value="" style="endArrow=none;html=1;rounded=0;strokeWidth=7;endSize=6;movable=0;resizable=0;rotatable=0;deletable=0;editable=0;locked=1;connectable=0;" edge="1" parent="1">
          <mxGeometry width="50" height="50" relative="1" as="geometry">
            <mxPoint x="871" y="1576" as="sourcePoint" />
            <mxPoint x="951" y="1576" as="targetPoint" />
          </mxGeometry>
        </mxCell>
        <mxCell id="4-8o9Q_LbCTy3XWPZkN8-14" value="" style="endArrow=none;html=1;rounded=0;strokeWidth=7;endSize=6;movable=0;resizable=0;rotatable=0;deletable=0;editable=0;locked=1;connectable=0;" edge="1" parent="1">
          <mxGeometry width="50" height="50" relative="1" as="geometry">
            <mxPoint x="1179" y="1453" as="sourcePoint" />
            <mxPoint x="1179" y="1533" as="targetPoint" />
          </mxGeometry>
        </mxCell>
        <mxCell id="4-8o9Q_LbCTy3XWPZkN8-15" value="" style="endArrow=none;html=1;rounded=0;strokeWidth=7;endSize=6;movable=0;resizable=0;rotatable=0;deletable=0;editable=0;locked=1;connectable=0;" edge="1" parent="1">
          <mxGeometry width="50" height="50" relative="1" as="geometry">
            <mxPoint x="1016" y="1450" as="sourcePoint" />
            <mxPoint x="1096" y="1450" as="targetPoint" />
          </mxGeometry>
        </mxCell>
        <mxCell id="4-8o9Q_LbCTy3XWPZkN8-16" value="" style="endArrow=none;html=1;rounded=0;strokeWidth=7;endSize=6;movable=0;resizable=0;rotatable=0;deletable=0;editable=0;locked=1;connectable=0;" edge="1" parent="1">
          <mxGeometry width="50" height="50" relative="1" as="geometry">
            <mxPoint x="1099" y="1530" as="sourcePoint" />
            <mxPoint x="1179" y="1530" as="targetPoint" />
          </mxGeometry>
        </mxCell>
        <mxCell id="4-8o9Q_LbCTy3XWPZkN8-17" value="" style="endArrow=none;html=1;rounded=0;strokeWidth=7;endSize=6;movable=0;resizable=0;rotatable=0;deletable=0;editable=0;locked=1;connectable=0;" edge="1" parent="1">
          <mxGeometry width="50" height="50" relative="1" as="geometry">
            <mxPoint x="1099" y="1527" as="sourcePoint" />
            <mxPoint x="1099" y="1607" as="targetPoint" />
          </mxGeometry>
        </mxCell>
        <mxCell id="4-8o9Q_LbCTy3XWPZkN8-18" value="" style="endArrow=none;html=1;rounded=0;strokeWidth=7;endSize=6;movable=0;resizable=0;rotatable=0;deletable=0;editable=0;locked=1;connectable=0;" edge="1" parent="1">
          <mxGeometry width="50" height="50" relative="1" as="geometry">
            <mxPoint x="1023" y="1609" as="sourcePoint" />
            <mxPoint x="1103" y="1609" as="targetPoint" />
          </mxGeometry>
        </mxCell>
        <mxCell id="4-8o9Q_LbCTy3XWPZkN8-19" value="" style="endArrow=none;html=1;rounded=0;strokeWidth=7;endSize=6;movable=0;resizable=0;rotatable=0;deletable=0;editable=0;locked=1;connectable=0;" edge="1" parent="1">
          <mxGeometry width="50" height="50" relative="1" as="geometry">
            <mxPoint x="1027" y="1610" as="sourcePoint" />
            <mxPoint x="1027" y="1720" as="targetPoint" />
          </mxGeometry>
        </mxCell>
        <mxCell id="4-8o9Q_LbCTy3XWPZkN8-20" value="" style="endArrow=none;html=1;rounded=0;strokeWidth=7;endSize=6;movable=0;resizable=0;rotatable=0;deletable=0;editable=0;locked=1;connectable=0;" edge="1" parent="1">
          <mxGeometry width="50" height="50" relative="1" as="geometry">
            <mxPoint x="945" y="1640" as="sourcePoint" />
            <mxPoint x="1025" y="1640" as="targetPoint" />
          </mxGeometry>
        </mxCell>
        <mxCell id="4-8o9Q_LbCTy3XWPZkN8-21" value="" style="endArrow=none;html=1;rounded=0;strokeWidth=7;endSize=6;movable=0;resizable=0;rotatable=0;deletable=0;editable=0;locked=1;connectable=0;" edge="1" parent="1">
          <mxGeometry width="50" height="50" relative="1" as="geometry">
            <mxPoint x="1098" y="1660" as="sourcePoint" />
            <mxPoint x="1178" y="1660" as="targetPoint" />
          </mxGeometry>
        </mxCell>
        <mxCell id="4-8o9Q_LbCTy3XWPZkN8-22" value="" style="endArrow=none;html=1;rounded=0;strokeWidth=7;endSize=6;movable=0;resizable=0;rotatable=0;deletable=0;editable=0;locked=1;connectable=0;" edge="1" parent="1">
          <mxGeometry width="50" height="50" relative="1" as="geometry">
            <mxPoint x="1101" y="1660" as="sourcePoint" />
            <mxPoint x="1101" y="1720" as="targetPoint" />
          </mxGeometry>
        </mxCell>
        <mxCell id="4-8o9Q_LbCTy3XWPZkN8-23" value="" style="ellipse;whiteSpace=wrap;html=1;aspect=fixed;" vertex="1" parent="1">
          <mxGeometry x="855" y="1019" width="30" height="30" as="geometry" />
        </mxCell>
        <mxCell id="4-8o9Q_LbCTy3XWPZkN8-24" value="" style="ellipse;whiteSpace=wrap;html=1;aspect=fixed;" vertex="1" parent="1">
          <mxGeometry x="1245" y="1019" width="30" height="30" as="geometry" />
        </mxCell>
        <mxCell id="4-8o9Q_LbCTy3XWPZkN8-25" value="" style="ellipse;whiteSpace=wrap;html=1;aspect=fixed;" vertex="1" parent="1">
          <mxGeometry x="1030" y="460" width="30" height="30" as="geometry" />
        </mxCell>
        <mxCell id="4-8o9Q_LbCTy3XWPZkN8-42" style="edgeStyle=orthogonalEdgeStyle;rounded=0;orthogonalLoop=1;jettySize=auto;html=1;exitX=0.5;exitY=1;exitDx=0;exitDy=0;entryX=0.5;entryY=0;entryDx=0;entryDy=0;" edge="1" parent="1" source="4-8o9Q_LbCTy3XWPZkN8-26" target="4-8o9Q_LbCTy3XWPZkN8-27">
          <mxGeometry relative="1" as="geometry" />
        </mxCell>
        <mxCell id="4-8o9Q_LbCTy3XWPZkN8-26" value="" style="ellipse;whiteSpace=wrap;html=1;aspect=fixed;" vertex="1" parent="1">
          <mxGeometry x="970" y="505" width="30" height="30" as="geometry" />
        </mxCell>
        <mxCell id="4-8o9Q_LbCTy3XWPZkN8-51" style="edgeStyle=orthogonalEdgeStyle;rounded=0;orthogonalLoop=1;jettySize=auto;html=1;exitX=0.5;exitY=1;exitDx=0;exitDy=0;entryX=0.024;entryY=0.367;entryDx=0;entryDy=0;entryPerimeter=0;" edge="1" parent="1" source="4-8o9Q_LbCTy3XWPZkN8-27" target="4-8o9Q_LbCTy3XWPZkN8-34">
          <mxGeometry relative="1" as="geometry" />
        </mxCell>
        <mxCell id="4-8o9Q_LbCTy3XWPZkN8-27" value="" style="ellipse;whiteSpace=wrap;html=1;aspect=fixed;" vertex="1" parent="1">
          <mxGeometry x="970" y="655" width="30" height="30" as="geometry" />
        </mxCell>
        <mxCell id="4-8o9Q_LbCTy3XWPZkN8-43" style="edgeStyle=orthogonalEdgeStyle;rounded=0;orthogonalLoop=1;jettySize=auto;html=1;exitX=1;exitY=0.5;exitDx=0;exitDy=0;entryX=0;entryY=0.5;entryDx=0;entryDy=0;" edge="1" parent="1" source="4-8o9Q_LbCTy3XWPZkN8-28" target="4-8o9Q_LbCTy3XWPZkN8-27">
          <mxGeometry relative="1" as="geometry" />
        </mxCell>
        <mxCell id="4-8o9Q_LbCTy3XWPZkN8-28" value="" style="ellipse;whiteSpace=wrap;html=1;aspect=fixed;" vertex="1" parent="1">
          <mxGeometry x="885" y="655" width="30" height="30" as="geometry" />
        </mxCell>
        <mxCell id="4-8o9Q_LbCTy3XWPZkN8-44" style="edgeStyle=orthogonalEdgeStyle;rounded=0;orthogonalLoop=1;jettySize=auto;html=1;exitX=0;exitY=0.5;exitDx=0;exitDy=0;entryX=1;entryY=1;entryDx=0;entryDy=0;" edge="1" parent="1" source="4-8o9Q_LbCTy3XWPZkN8-29" target="4-8o9Q_LbCTy3XWPZkN8-26">
          <mxGeometry relative="1" as="geometry" />
        </mxCell>
        <mxCell id="4-8o9Q_LbCTy3XWPZkN8-45" style="edgeStyle=orthogonalEdgeStyle;rounded=0;orthogonalLoop=1;jettySize=auto;html=1;exitX=0;exitY=1;exitDx=0;exitDy=0;entryX=1;entryY=0;entryDx=0;entryDy=0;" edge="1" parent="1" source="4-8o9Q_LbCTy3XWPZkN8-29" target="4-8o9Q_LbCTy3XWPZkN8-27">
          <mxGeometry relative="1" as="geometry" />
        </mxCell>
        <mxCell id="4-8o9Q_LbCTy3XWPZkN8-46" style="edgeStyle=orthogonalEdgeStyle;rounded=0;orthogonalLoop=1;jettySize=auto;html=1;exitX=1;exitY=0.5;exitDx=0;exitDy=0;entryX=0;entryY=0.5;entryDx=0;entryDy=0;" edge="1" parent="1" source="4-8o9Q_LbCTy3XWPZkN8-29" target="4-8o9Q_LbCTy3XWPZkN8-30">
          <mxGeometry relative="1" as="geometry" />
        </mxCell>
        <mxCell id="4-8o9Q_LbCTy3XWPZkN8-48" style="edgeStyle=orthogonalEdgeStyle;rounded=0;orthogonalLoop=1;jettySize=auto;html=1;exitX=0.5;exitY=1;exitDx=0;exitDy=0;entryX=0.5;entryY=0;entryDx=0;entryDy=0;" edge="1" parent="1" source="4-8o9Q_LbCTy3XWPZkN8-29" target="4-8o9Q_LbCTy3XWPZkN8-32">
          <mxGeometry relative="1" as="geometry" />
        </mxCell>
        <mxCell id="4-8o9Q_LbCTy3XWPZkN8-29" value="" style="ellipse;whiteSpace=wrap;html=1;aspect=fixed;" vertex="1" parent="1">
          <mxGeometry x="1030" y="575" width="30" height="30" as="geometry" />
        </mxCell>
        <mxCell id="4-8o9Q_LbCTy3XWPZkN8-30" value="" style="ellipse;whiteSpace=wrap;html=1;aspect=fixed;" vertex="1" parent="1">
          <mxGeometry x="1110" y="575" width="30" height="30" as="geometry" />
        </mxCell>
        <mxCell id="4-8o9Q_LbCTy3XWPZkN8-47" style="edgeStyle=orthogonalEdgeStyle;rounded=0;orthogonalLoop=1;jettySize=auto;html=1;exitX=0;exitY=0.5;exitDx=0;exitDy=0;entryX=0.5;entryY=0;entryDx=0;entryDy=0;" edge="1" parent="1" source="4-8o9Q_LbCTy3XWPZkN8-31" target="4-8o9Q_LbCTy3XWPZkN8-30">
          <mxGeometry relative="1" as="geometry" />
        </mxCell>
        <mxCell id="4-8o9Q_LbCTy3XWPZkN8-31" value="" style="ellipse;whiteSpace=wrap;html=1;aspect=fixed;" vertex="1" parent="1">
          <mxGeometry x="1160" y="505" width="30" height="30" as="geometry" />
        </mxCell>
        <mxCell id="4-8o9Q_LbCTy3XWPZkN8-32" value="" style="ellipse;whiteSpace=wrap;html=1;aspect=fixed;" vertex="1" parent="1">
          <mxGeometry x="1050" y="655" width="30" height="30" as="geometry" />
        </mxCell>
        <mxCell id="4-8o9Q_LbCTy3XWPZkN8-49" style="edgeStyle=orthogonalEdgeStyle;rounded=0;orthogonalLoop=1;jettySize=auto;html=1;exitX=0;exitY=0.5;exitDx=0;exitDy=0;entryX=1;entryY=0.5;entryDx=0;entryDy=0;" edge="1" parent="1" source="4-8o9Q_LbCTy3XWPZkN8-33" target="4-8o9Q_LbCTy3XWPZkN8-32">
          <mxGeometry relative="1" as="geometry" />
        </mxCell>
        <mxCell id="4-8o9Q_LbCTy3XWPZkN8-50" style="edgeStyle=orthogonalEdgeStyle;rounded=0;orthogonalLoop=1;jettySize=auto;html=1;exitX=0.5;exitY=1;exitDx=0;exitDy=0;entryX=1;entryY=0;entryDx=0;entryDy=0;" edge="1" parent="1" source="4-8o9Q_LbCTy3XWPZkN8-33" target="4-8o9Q_LbCTy3XWPZkN8-34">
          <mxGeometry relative="1" as="geometry">
            <Array as="points">
              <mxPoint x="1185" y="735" />
              <mxPoint x="1066" y="735" />
            </Array>
          </mxGeometry>
        </mxCell>
        <mxCell id="4-8o9Q_LbCTy3XWPZkN8-60" style="edgeStyle=orthogonalEdgeStyle;rounded=0;orthogonalLoop=1;jettySize=auto;html=1;exitX=1;exitY=0.5;exitDx=0;exitDy=0;entryX=0.5;entryY=0;entryDx=0;entryDy=0;" edge="1" parent="1" source="4-8o9Q_LbCTy3XWPZkN8-33" target="4-8o9Q_LbCTy3XWPZkN8-40">
          <mxGeometry relative="1" as="geometry" />
        </mxCell>
        <mxCell id="4-8o9Q_LbCTy3XWPZkN8-33" value="" style="ellipse;whiteSpace=wrap;html=1;aspect=fixed;" vertex="1" parent="1">
          <mxGeometry x="1170" y="655" width="30" height="30" as="geometry" />
        </mxCell>
        <mxCell id="4-8o9Q_LbCTy3XWPZkN8-52" style="edgeStyle=orthogonalEdgeStyle;rounded=0;orthogonalLoop=1;jettySize=auto;html=1;exitX=0.5;exitY=1;exitDx=0;exitDy=0;entryX=1;entryY=0;entryDx=0;entryDy=0;" edge="1" parent="1" source="4-8o9Q_LbCTy3XWPZkN8-34" target="4-8o9Q_LbCTy3XWPZkN8-35">
          <mxGeometry relative="1" as="geometry" />
        </mxCell>
        <mxCell id="4-8o9Q_LbCTy3XWPZkN8-34" value="" style="ellipse;whiteSpace=wrap;html=1;aspect=fixed;" vertex="1" parent="1">
          <mxGeometry x="1040" y="740" width="30" height="30" as="geometry" />
        </mxCell>
        <mxCell id="4-8o9Q_LbCTy3XWPZkN8-53" style="edgeStyle=orthogonalEdgeStyle;rounded=0;orthogonalLoop=1;jettySize=auto;html=1;exitX=0;exitY=1;exitDx=0;exitDy=0;entryX=1;entryY=0;entryDx=0;entryDy=0;" edge="1" parent="1" source="4-8o9Q_LbCTy3XWPZkN8-35" target="4-8o9Q_LbCTy3XWPZkN8-36">
          <mxGeometry relative="1" as="geometry" />
        </mxCell>
        <mxCell id="4-8o9Q_LbCTy3XWPZkN8-35" value="" style="ellipse;whiteSpace=wrap;html=1;aspect=fixed;" vertex="1" parent="1">
          <mxGeometry x="990" y="825" width="30" height="30" as="geometry" />
        </mxCell>
        <mxCell id="4-8o9Q_LbCTy3XWPZkN8-54" style="edgeStyle=orthogonalEdgeStyle;rounded=0;orthogonalLoop=1;jettySize=auto;html=1;exitX=0.5;exitY=1;exitDx=0;exitDy=0;entryX=0.5;entryY=0;entryDx=0;entryDy=0;" edge="1" parent="1" source="4-8o9Q_LbCTy3XWPZkN8-36" target="4-8o9Q_LbCTy3XWPZkN8-37">
          <mxGeometry relative="1" as="geometry" />
        </mxCell>
        <mxCell id="4-8o9Q_LbCTy3XWPZkN8-36" value="" style="ellipse;whiteSpace=wrap;html=1;aspect=fixed;" vertex="1" parent="1">
          <mxGeometry x="885" y="885" width="30" height="30" as="geometry" />
        </mxCell>
        <mxCell id="4-8o9Q_LbCTy3XWPZkN8-55" style="edgeStyle=orthogonalEdgeStyle;rounded=0;orthogonalLoop=1;jettySize=auto;html=1;exitX=1;exitY=0.5;exitDx=0;exitDy=0;entryX=0;entryY=0.5;entryDx=0;entryDy=0;" edge="1" parent="1" source="4-8o9Q_LbCTy3XWPZkN8-37" target="4-8o9Q_LbCTy3XWPZkN8-38">
          <mxGeometry relative="1" as="geometry" />
        </mxCell>
        <mxCell id="4-8o9Q_LbCTy3XWPZkN8-37" value="" style="ellipse;whiteSpace=wrap;html=1;aspect=fixed;" vertex="1" parent="1">
          <mxGeometry x="890" y="989" width="30" height="30" as="geometry" />
        </mxCell>
        <mxCell id="4-8o9Q_LbCTy3XWPZkN8-56" style="edgeStyle=orthogonalEdgeStyle;rounded=0;orthogonalLoop=1;jettySize=auto;html=1;exitX=0.5;exitY=0;exitDx=0;exitDy=0;entryX=0;entryY=0.5;entryDx=0;entryDy=0;" edge="1" parent="1" source="4-8o9Q_LbCTy3XWPZkN8-38" target="4-8o9Q_LbCTy3XWPZkN8-41">
          <mxGeometry relative="1" as="geometry" />
        </mxCell>
        <mxCell id="4-8o9Q_LbCTy3XWPZkN8-59" style="edgeStyle=orthogonalEdgeStyle;rounded=0;orthogonalLoop=1;jettySize=auto;html=1;exitX=1;exitY=0.5;exitDx=0;exitDy=0;entryX=0.024;entryY=0.39;entryDx=0;entryDy=0;entryPerimeter=0;" edge="1" parent="1" source="4-8o9Q_LbCTy3XWPZkN8-38" target="4-8o9Q_LbCTy3XWPZkN8-39">
          <mxGeometry relative="1" as="geometry" />
        </mxCell>
        <mxCell id="4-8o9Q_LbCTy3XWPZkN8-38" value="" style="ellipse;whiteSpace=wrap;html=1;aspect=fixed;" vertex="1" parent="1">
          <mxGeometry x="1040" y="989" width="30" height="30" as="geometry" />
        </mxCell>
        <mxCell id="4-8o9Q_LbCTy3XWPZkN8-39" value="" style="ellipse;whiteSpace=wrap;html=1;aspect=fixed;" vertex="1" parent="1">
          <mxGeometry x="1200" y="989" width="30" height="30" as="geometry" />
        </mxCell>
        <mxCell id="4-8o9Q_LbCTy3XWPZkN8-58" style="edgeStyle=orthogonalEdgeStyle;rounded=0;orthogonalLoop=1;jettySize=auto;html=1;exitX=0.5;exitY=1;exitDx=0;exitDy=0;entryX=0.5;entryY=0;entryDx=0;entryDy=0;" edge="1" parent="1" source="4-8o9Q_LbCTy3XWPZkN8-40" target="4-8o9Q_LbCTy3XWPZkN8-39">
          <mxGeometry relative="1" as="geometry" />
        </mxCell>
        <mxCell id="4-8o9Q_LbCTy3XWPZkN8-40" value="" style="ellipse;whiteSpace=wrap;html=1;aspect=fixed;" vertex="1" parent="1">
          <mxGeometry x="1200" y="835" width="30" height="30" as="geometry" />
        </mxCell>
        <mxCell id="4-8o9Q_LbCTy3XWPZkN8-57" style="edgeStyle=orthogonalEdgeStyle;rounded=0;orthogonalLoop=1;jettySize=auto;html=1;exitX=1;exitY=0.5;exitDx=0;exitDy=0;entryX=0;entryY=0.5;entryDx=0;entryDy=0;" edge="1" parent="1" source="4-8o9Q_LbCTy3XWPZkN8-41" target="4-8o9Q_LbCTy3XWPZkN8-40">
          <mxGeometry relative="1" as="geometry" />
        </mxCell>
        <mxCell id="4-8o9Q_LbCTy3XWPZkN8-41" value="" style="ellipse;whiteSpace=wrap;html=1;aspect=fixed;" vertex="1" parent="1">
          <mxGeometry x="1090" y="885" width="30" height="30" as="geometry" />
        </mxCell>
      </root>
    </mxGraphModel>
  </diagram>
</mxfile>
